<svg data-v-423bf9ae="" xmlns="http://www.w3.org/2000/svg" viewBox="0 0 497 90" class="iconLeft"><!----><!----><!----><g data-v-423bf9ae="" id="dfcbdf23-6ba9-4ee2-806d-6989436ef327" fill="#5e4ae3d3" transform="matrix(4.464285536890945,0,0,4.464285536890945,123.56455420631656,-1.0714270302228002)"><path d="M1.37 13.65L2.52 13.65L2.52 7.46C2.52 6.94 2.49 6.23 2.46 5.80C2.62 6.33 2.81 6.97 2.97 7.35L5.49 13.65L6.51 13.65L8.93 7.42L9.56 5.71C9.53 6.15 9.51 6.94 9.51 7.50L9.51 13.65L10.65 13.65L10.65 4.40L8.96 4.40L6.37 11.05C6.22 11.41 6.09 11.76 5.99 12.04C5.91 11.76 5.78 11.40 5.64 11.05L2.97 4.40L1.37 4.40ZM18.13 10.61L18.13 9.91C18.13 7.95 17.22 7.03 15.53 7.03C13.29 7.03 12.56 8.75 12.56 10.47C12.56 12.78 13.65 13.85 15.55 13.85C16.97 13.85 17.81 13.16 18.13 12.01L17.15 11.82C16.97 12.40 16.42 12.92 15.58 12.92C14.11 12.92 13.78 11.80 13.76 10.61ZM15.50 7.95C16.51 7.95 16.97 8.61 16.97 9.46L16.97 9.72L13.80 9.72C13.97 8.50 14.60 7.95 15.50 7.95ZM19.91 13.65L21.03 13.65L21.03 10.22C21.15 9.65 21.67 7.99 23.11 7.99C23.79 7.99 24.12 8.36 24.12 9.32L24.12 13.65L25.24 13.65L25.24 10.22C25.37 9.65 25.89 7.99 27.33 7.99C28 7.99 28.34 8.36 28.34 9.32L28.34 13.65L29.46 13.65L29.46 9.00C29.46 7.63 28.60 7.03 27.51 7.03C25.89 7.03 25.30 8.23 25.16 8.58C24.95 7.42 24.22 7.03 23.30 7.03C21.78 7.03 21.18 8.06 20.99 8.50L20.99 7.22L19.91 7.22ZM31.56 13.65L32.49 13.65L32.55 12.80C32.89 13.38 33.45 13.85 34.52 13.85C36.46 13.85 37.32 12.24 37.32 10.22C37.32 8.64 36.62 7.03 34.64 7.03C33.71 7.03 33.07 7.52 32.68 8.04L32.68 3.60L31.56 3.60ZM34.50 12.92C33.39 12.92 32.69 11.93 32.69 10.49C32.69 9.04 33.36 7.95 34.54 7.95C35.52 7.95 36.12 8.71 36.12 10.30C36.12 11.79 35.67 12.92 34.50 12.92ZM44.27 10.61L44.27 9.91C44.27 7.95 43.36 7.03 41.66 7.03C39.42 7.03 38.70 8.75 38.70 10.47C38.70 12.78 39.79 13.85 41.69 13.85C43.11 13.85 43.95 13.16 44.27 12.01L43.29 11.82C43.11 12.40 42.56 12.92 41.72 12.92C40.25 12.92 39.91 11.80 39.90 10.61ZM41.64 7.95C42.64 7.95 43.11 8.61 43.11 9.46L43.11 9.72L39.94 9.72C40.11 8.50 40.74 7.95 41.64 7.95ZM46.05 13.65L47.17 13.65L47.17 10.37C47.33 9.41 47.80 8.08 48.75 8.08C49.15 8.08 49.39 8.48 49.39 8.48L50.01 7.60C50.01 7.60 49.69 7.03 48.96 7.03C47.94 7.03 47.35 7.85 47.12 8.47L47.12 7.22L46.05 7.22ZM50.75 11.86C50.61 13.27 52.04 13.85 53.34 13.85C54.81 13.85 55.87 13.12 55.87 11.84C55.87 9.46 52.11 10.36 52.11 8.75C52.11 8.20 52.58 7.95 53.31 7.95C54.46 7.95 54.63 8.64 54.54 9.09L55.66 8.89C55.89 7.64 54.73 7.03 53.37 7.03C51.74 7.03 50.96 7.87 50.96 8.95C50.96 11.28 54.70 10.49 54.70 12.05C54.70 12.64 54.12 12.92 53.30 12.92C52.22 12.92 51.74 12.38 51.81 11.69ZM61.35 13.85C64.11 13.85 65.53 11.76 65.53 8.89C65.53 5.92 64.01 4.20 61.42 4.20C58.69 4.20 57.26 6.13 57.26 9.00C57.26 11.80 58.62 13.85 61.35 13.85ZM61.35 12.84C59.72 12.84 58.60 11.79 58.60 9.06C58.60 6.38 59.68 5.21 61.42 5.21C63.11 5.21 64.19 6.33 64.19 8.96C64.19 11.59 63.11 12.84 61.35 12.84ZM67.33 13.65L68.45 13.65L68.45 10.22C68.57 9.65 69.09 7.99 70.53 7.99C71.20 7.99 71.54 8.36 71.54 9.32L71.54 13.65L72.66 13.65L72.66 9.00C72.66 7.63 71.81 7.03 70.71 7.03C69.20 7.03 68.60 8.06 68.40 8.50L68.40 7.22L67.33 7.22ZM74.76 13.65L75.88 13.65L75.88 3.60L74.76 3.60ZM77.24 16.58C77.50 16.79 77.94 17.04 78.60 17.04C80.23 17.04 80.65 15.57 80.78 14.73L80.95 13.52L83.45 7.22L82.35 7.22L80.82 11.19C80.70 11.49 80.57 11.89 80.47 12.18C80.37 11.89 80.22 11.47 80.11 11.19L78.47 7.22L77.25 7.22L79.94 13.52L79.81 14.50C79.69 15.57 79.16 16.11 78.62 16.11C78.30 16.11 77.99 15.96 77.77 15.75Z"></path></g><defs data-v-423bf9ae=""><linearGradient data-v-423bf9ae="" gradientTransform="rotate(25)" id="eab56a8d-65a4-46fe-876d-bbf515af4d5a" x1="0%" y1="0%" x2="100%" y2="0%"><stop data-v-423bf9ae="" offset="0%" style="stop-color: rgb(141, 44, 227); stop-opacity: 1;"></stop><stop data-v-423bf9ae="" offset="100%" style="stop-color: rgb(247, 198, 246); stop-opacity: 1;"></stop></linearGradient></defs><g data-v-423bf9ae="" id="47eecf5d-6dad-486c-97a3-4d69f85d3143" transform="matrix(1.119795703504668,0,0,1.119795703504668,-0.9632202224525273,-10.175675163978362)" stroke="none" fill="url(#eab56a8d-65a4-46fe-876d-bbf515af4d5a)"><path d="M83.611 22.29H46.527c-8.471 0-15.363 6.892-15.363 15.363v19.309c0 8.471 6.892 15.363 15.363 15.363h25.716l12.1 13.824 3.303 3.733a.905.905 0 0 0 1 .244.909.909 0 0 0 .584-.846V71.252a15.374 15.374 0 0 0 9.743-14.291V37.653c.001-8.471-6.891-15.363-15.362-15.363zm11.666 34.672c0 4.765-2.864 9.005-7.295 10.802a9.813 9.813 0 0 1-1.742.561.902.902 0 0 0-.706.882v12.689l-9.675-11.073-1.656-1.887a.91.91 0 0 0-.679-.308H46.527c-6.435 0-11.666-5.231-11.666-11.666V37.653c0-6.43 5.231-11.666 11.666-11.666h37.084c6.43 0 11.666 5.236 11.666 11.666v19.309z"></path><path d="M28.499 45.468h-5.168a.896.896 0 0 0-.679.308L21 47.663 14.466 55.5v-9.458a.908.908 0 0 0-.71-.882 10.145 10.145 0 0 1-1.729-.552c-4.444-1.806-7.304-6.046-7.304-10.806v-8.625c0-6.435 5.231-11.666 11.666-11.666h27.024c4.405 0 8.397 2.482 10.389 6.382h4.039c-.35-.95-.795-1.869-1.328-2.735-2.824-4.598-7.72-7.344-13.1-7.344H16.389c-8.471 0-15.363 6.892-15.363 15.363v8.625a15.357 15.357 0 0 0 9.743 14.286v14.888a.9.9 0 0 0 .905.905.906.906 0 0 0 .679-.303l3.299-3.729c.005-.005.009-.009.014-.018l8.955-10.67h3.878v-3.693z"></path></g><!----></svg>